SplineFontDB: 3.0
FontName: Boon-Black
FullName: Boon Black
FamilyName: Boon
Weight: Black
Copyright: Created by Sungsit Sawaiwan,,, with FontForge 2.0 (http://fontforge.sf.net)
UComments: "2013-5-2: Created." 
Version: 001.000
ItalicAngle: 0
UnderlinePosition: -144
UnderlineWidth: 72
Ascent: 900
Descent: 300
LayerCount: 2
Layer: 0 0 "Back"  1
Layer: 1 0 "Fore"  0
XUID: [1021 986 1629648563 13463922]
FSType: 8
OS2Version: 0
OS2_WeightWidthSlopeOnly: 0
OS2_UseTypoMetrics: 1
CreationTime: 1367466433
ModificationTime: 1367676569
PfmFamily: 33
TTFWeight: 900
TTFWidth: 5
LineGap: 108
VLineGap: 0
OS2TypoAscent: 0
OS2TypoAOffset: 1
OS2TypoDescent: 0
OS2TypoDOffset: 1
OS2TypoLinegap: 108
OS2WinAscent: 0
OS2WinAOffset: 1
OS2WinDescent: 0
OS2WinDOffset: 1
HheadAscent: 0
HheadAOffset: 1
HheadDescent: 0
HheadDOffset: 1
OS2Vendor: 'PfEd'
Lookup: 2 0 0 "Thai preprocesses"  {"Sara Am Decomposition"  } []
Lookup: 6 0 0 "'ccmp' Thai glyph position handlings"  {"'ccmp' Sara Am Decomposition"  } ['ccmp' ('DFLT' <'dflt' > 'latn' <'dflt' > 'thai' <'dflt' > ) ]
Lookup: 260 0 0 "'mark' Thai Position Handlings"  {"'mark' Thai Upper Trail"  } ['mark' ('DFLT' <'dflt' > 'latn' <'dflt' > 'thai' <'dflt' > ) ]
MarkAttachClasses: 1
DEI: 91125
ChainSub2: coverage "'ccmp' Sara Am Decomposition"  0 0 0 1
 1 1 0
  Coverage: 7 uni0E33
  BCoverage: 39 uni0E1B uni0E48 uni0E49 uni0E4A uni0E4B
 1
  SeqLookup: 0 "Thai preprocesses" 
EndFPST
LangName: 1033 
Encoding: iso8859-11
UnicodeInterp: none
NameList: Adobe Glyph List
DisplaySize: -96
AntiAlias: 1
FitToEm: 1
WinInfo: 180 12 5
BeginPrivate: 0
EndPrivate
TeXData: 1 0 0 346030 173015 115343 0 1048576 115343 783286 444596 497025 792723 393216 433062 380633 303038 157286 324010 404750 52429 2506097 1059062 262144
AnchorClass2: "UpperTrail"  "'mark' Thai Upper Trail" 
BeginChars: 261 41

StartChar: uniF8FF
Encoding: 257 63743 0
Width: 1520
VWidth: 0
Flags: W
HStem: -460 115<1125.55 1304> -448 215<580.522 656.242> -123 75<564.489 655.511 1004.49 1095.51> -12 140<382.014 559.045 1141.7 1262.35> 472 140<741.568 878.302> 512 100<131.832 228.168>
VStem: 20 100<403.674 500.168> 160 180<169.247 298.272> 240 100<403.108 499.443> 480 75<-224.192 -132.489> 560 180<134.945 467.023> 580 160<-448 -295.164> 665 75<-224.242 -133.22> 920 180<176.197 423.803> 920 75<-224.385 -132.489> 1105 75<-224.057 -132.489> 1280 180<137.128 600> 1320 140<-326.096 -72> 1380 80<-60.8921 36.8921>
LayerCount: 2
Fore
SplineSet
180 612 m 0x3749
 268 612 340 540 340 452 c 2x36c1
 340 294 l 2
 340 245 346 205 362 176 c 0
 378 146 418 128 467 128 c 0
 505 128 543 133 560 146 c 1
 560 540 l 1
 560 540 651 612 813 612 c 0
 905 612 976 593 1027 536 c 0
 1078 479 1100 426 1100 336 c 2
 1100 294 l 2
 1100 245 1109 205 1125 176 c 0
 1141 146 1170 128 1207 128 c 0
 1216 128 1257 131 1280 152 c 1
 1280 600 l 1
 1460 600 l 1x3b6580
 1460 -388 l 1x3a4120
 1460 -388 1369 -460 1207 -460 c 0
 1115 -460 1044 -441 993 -384 c 1
 951 -335 920 -286 920 -178 c 0
 920 -106 978 -48 1050 -48 c 0
 1122 -48 1180 -106 1180 -178 c 0
 1180 -227 1160 -270 1102 -295 c 1
 1123 -326 1157 -345 1207 -345 c 0
 1245 -345 1295 -334 1320 -307 c 1
 1320 -72 l 1xba4340
 1353 -72 1380 -45 1380 -12 c 0xba4120
 1380 21 1353 48 1320 48 c 0
 1289 48 1263 25 1260 -5 c 1
 1243 -9 1225 -11 1207 -12 c 1
 1115 -12 1044 7 993 64 c 0
 942 121 920 174 920 264 c 2
 920 306 l 2
 920 355 911 395 895 424 c 0
 879 454 850 472 813 472 c 0
 775 472 757 467 740 454 c 1xba6540
 740 60 l 1
 740 60 629 -12 467 -12 c 0
 375 -12 269 -3 218 54 c 0
 167 111 160 150 160 264 c 2
 160 293 l 1
 81 303 20 370 20 452 c 0
 20 540 92 612 180 612 c 0x3749
180 512 m 0
 147 512 120 485 120 452 c 0
 120 419 147 392 180 392 c 0
 213 392 240 419 240 452 c 0
 240 485 213 512 180 512 c 0
610 -48 m 0
 682 -48 740 -106 740 -178 c 2x7249
 740 -448 l 1
 580 -448 l 1
 580 -304 l 1x7251
 523 -291 480 -239 480 -178 c 0
 480 -106 538 -48 610 -48 c 0
610 -123 m 0
 580 -123 555 -148 555 -178 c 0
 555 -208 580 -233 610 -233 c 0
 640 -233 665 -208 665 -178 c 0
 665 -148 640 -123 610 -123 c 0
1050 -123 m 0
 1020 -123 995 -148 995 -178 c 0x7243
 995 -208 1020 -233 1050 -233 c 0
 1080 -233 1105 -208 1105 -178 c 0
 1105 -148 1080 -123 1050 -123 c 0
EndSplineSet
EndChar

StartChar: uni0E01
Encoding: 161 3585 1
Width: 710
VWidth: 0
Flags: W
HStem: 0 21G<100 280 470 650> 497 120<261.079 433.825>
VStem: 100 180<0 380.409> 470 180<0 461.992>
LayerCount: 2
Back
SplineSet
357 617 m 4
 449 617 534 603 584 546 c 5
 636 489 650 431 650 341 c 6
 650 0 l 5
 470 0 l 5
 470 341 l 6
 470 390 469 421 453 450 c 4
 437 480 395 496 357 497 c 4
 289 497 235 458 215 437 c 5
 305 398 l 5
 283 380 280 354 280 335 c 6
 280 0 l 5
 100 0 l 5
 100 301 l 6
 100 329 109 361 130 385 c 5
 40 429 l 5
 55 452 70 472 86 490 c 4
 163 579 257 617 357 617 c 4
EndSplineSet
Fore
SplineSet
280 0 m 5
 100 0 l 5
 100 301 l 6
 100 329 109 361 130 385 c 5
 40 429 l 5
 55 452 70 472 86 490 c 4
 163 579 257 617 357 617 c 4
 449 617 534 603 584 546 c 5
 636 489 650 431 650 341 c 4
 650 231 650 0 650 0 c 5
 470 0 l 5
 470 341 l 6
 470 390 469 421 453 450 c 4
 437 480 395 496 357 497 c 5
 289 497 235 458 215 437 c 5
 280 400 280 400 280 400 c 5
 280 267 280 0 280 0 c 5
EndSplineSet
EndChar

StartChar: uniF70F
Encoding: 259 63247 4
Width: 1040
VWidth: 0
Flags: W
HStem: -12 115<673.95 799.087> -12 90<198.642 291.358> 497 120<261.079 433.825>
VStem: 100 180<264.901 380.246> 100 90<86.758 179.242> 300 90<86.6419 178.928> 470 180<125.758 461.992> 800 180<105.361 590>
LayerCount: 2
Fore
SplineSet
357 617 m 4x77
 449 617 534 603 584 546 c 5
 636 489 650 431 650 341 c 6
 650 294 l 6
 650 289 650 283 650 277 c 4
 650 229 651 166 665 140 c 4
 681 110 710 103 742 103 c 4
 774 103 788 107 800 118 c 5
 800 590 l 5
 980 590 l 5
 980 60 l 5
 980 60 904 -12 742 -12 c 4
 650 -12 569 -9 521 45 c 4
 473 99 470 150 470 264 c 6
 470 341 l 6
 470 390 469 421 453 450 c 4
 437 480 395 496 357 497 c 5
 289 497 235 458 215 437 c 5
 305 398 l 5
 283 380 280 354 280 335 c 6
 280 274 l 5xb7
 343 258 390 201 390 133 c 4
 390 53 325 -12 245 -12 c 4
 165 -12 100 53 100 133 c 4x6f
 100 192 100 242 100 301 c 4
 100 329 109 361 130 385 c 5
 40 429 l 5
 55 452 70 472 86 490 c 4
 163 579 257 617 357 617 c 4x77
245 188 m 4
 215 188 190 163 190 133 c 4
 190 103 215 78 245 78 c 4x6f
 275 78 300 103 300 133 c 4
 300 163 275 188 245 188 c 4
EndSplineSet
EndChar

StartChar: uni0E1A
Encoding: 186 3610 6
Width: 760
VWidth: 0
Flags: W
HStem: -12 120<359.225 517.059> 512 100<111.832 208.168>
VStem: 0 100<403.674 500.168> 140 180<149.654 298.272> 220 100<403.108 499.443> 520 180<113.916 590>
LayerCount: 2
Fore
SplineSet
160 612 m 0xf4
 248 612 320 540 320 452 c 2xec
 320 294 l 2
 320 245 326 185 342 156 c 0
 358 126 388 108 437 108 c 0
 475 108 503 113 520 126 c 1
 520 590 l 1
 700 590 l 1
 700 60 l 1
 700 60 599 -12 437 -12 c 0
 345 -12 249 -3 198 54 c 0
 147 111 140 150 140 264 c 2
 140 293 l 1
 61 303 0 370 0 452 c 0
 0 540 72 612 160 612 c 0xf4
160 512 m 0
 127 512 100 485 100 452 c 4
 100 419 127 392 160 392 c 0
 193 392 220 419 220 452 c 0
 220 485 193 512 160 512 c 0
EndSplineSet
EndChar

StartChar: uni0E38
Encoding: 216 3640 7
Width: 0
VWidth: 0
Flags: W
HStem: -390 187<-199.509 -129.412> -113 65<-210.512 -129.488>
VStem: -280 65<-198.301 -117.488> -200 140<-390 -252.558> -125 65<-198.588 -117.563>
LayerCount: 2
Fore
SplineSet
-170 -48 m 4xf0
 -109 -48 -60 -97 -60 -158 c 2xe8
 -60 -390 l 1
 -200 -390 l 1
 -200 -264 l 1
 -246 -251 -280 -208 -280 -158 c 0
 -280 -97 -231 -48 -170 -48 c 4xf0
-170 -113 m 0
 -195 -113 -215 -133 -215 -158 c 0
 -215 -183 -195 -203 -170 -203 c 0
 -145 -203 -125 -183 -125 -158 c 0
 -125 -133 -145 -113 -170 -113 c 0
EndSplineSet
EndChar

StartChar: uni0E40
Encoding: 224 3648 9
Width: 360
VWidth: 0
Flags: W
HStem: -12 90<158.642 251.358>
VStem: 60 180<264.901 590> 60 90<86.758 179.242> 260 90<86.6419 178.928>
LayerCount: 2
Fore
SplineSet
60 590 m 5xd0
 240 590 l 1
 240 274 l 1xd0
 303 258 350 201 350 133 c 0
 350 53 285 -12 205 -12 c 0
 125 -12 60 53 60 133 c 2xb0
 60 590 l 5xd0
205 188 m 0
 175 188 150 163 150 133 c 0xb0
 150 103 175 78 205 78 c 0
 235 78 260 103 260 133 c 0
 260 163 235 188 205 188 c 0
EndSplineSet
EndChar

StartChar: period
Encoding: 46 46 12
Width: 260
VWidth: 0
Flags: W
HStem: -12 200<62.8529 197.147>
VStem: 30 200<20.8529 155.147>
LayerCount: 2
Fore
SplineSet
230 88 m 0
 230 33 185 -12 130 -12 c 0
 75 -12 30 33 30 88 c 0
 30 143 75 188 130 188 c 0
 185 188 230 143 230 88 c 0
EndSplineSet
EndChar

StartChar: exclam
Encoding: 33 33 13
Width: 340
VWidth: 0
Flags: W
HStem: -12 200<102.853 237.147>
VStem: 70 200<20.8529 155.147> 80 180<635.4 900> 100 140<270 534.6>
LayerCount: 2
Fore
SplineSet
80 900 m 1xa0
 260 900 l 1xa0
 240 270 l 1
 100 270 l 1x90
 80 900 l 1xa0
EndSplineSet
Refer: 12 46 N 1 0 0 1 40 0 2
EndChar

StartChar: uni0E34
Encoding: 212 3636 14
Width: 0
VWidth: 0
Flags: W
HStem: 690 60<-475 -235> 812 100<-446.028 -278.445>
AnchorPoint: "UpperTrail" -570 0 mark 0
LayerCount: 2
Back
SplineSet
-420 920 m 4
 -176 920 -90 742.466 -90 688 c 5
 -640 688 l 5
 -640 805 -537.334 920 -420 920 c 4
-420 820 m 4
 -474 820 -500 782.114 -500 758 c 5
 -250 758 l 5
 -288 814 -362 820 -420 820 c 4
-1017.5 922 m 0
 -854.5 922 -752.5 805 -752.5 690 c 1
 -1282.5 690 l 1
 -1282.5 807 -1180.5 922 -1017.5 922 c 0
-1017.5 832 m 0
 -1092.5 832 -1120.5 802 -1137.5 770 c 1
 -897.5 770 l 1
 -913.5 802 -942.5 832 -1017.5 832 c 0
EndSplineSet
Fore
SplineSet
-620 690 m 5
 -620 807 -538 912 -375 912 c 5
 -235 907 -139 811 -90 690 c 5
 -620 690 l 5
-375 812 m 4
 -426 812 -458 782 -475 750 c 5
 -235 750 l 5
 -273 788 -309 812 -375 812 c 4
EndSplineSet
EndChar

StartChar: uni0E1B
Encoding: 187 3611 15
Width: 760
VWidth: 0
Flags: W
HStem: -12 120<359.225 517.059> 512 100<111.832 208.168>
VStem: 0 100<403.674 500.168> 140 180<149.654 298.272> 220 100<403.108 499.443> 520 180<113.916 860>
AnchorPoint: "UpperTrail" 0 0 basechar 0
LayerCount: 2
Fore
SplineSet
160 612 m 0xf4
 248 612 320 540 320 452 c 2xec
 320 294 l 2
 320 245 326 185 342 156 c 0
 358 126 388 108 437 108 c 0
 475 108 503 113 520 126 c 1
 520 860 l 1
 700 860 l 1
 700 60 l 1
 700 60 599 -12 437 -12 c 0
 345 -12 249 -3 198 54 c 0
 147 111 140 150 140 264 c 2
 140 293 l 1
 61 303 0 370 0 452 c 0
 0 540 72 612 160 612 c 0xf4
160 512 m 0
 127 512 100 485 100 452 c 0
 100 419 127 392 160 392 c 0
 193 392 220 419 220 452 c 0
 220 485 193 512 160 512 c 0
EndSplineSet
EndChar

StartChar: uni0E35
Encoding: 213 3637 16
Width: 0
VWidth: 0
Flags: W
HStem: 690 60<-475 -235> 812 100<-446.028 -278.599>
AnchorPoint: "UpperTrail" -570 0 mark 0
LayerCount: 2
Fore
SplineSet
-240 950 m 5
 -90 950 l 1
 -90 690 l 1
 -90 690 -443 690 -620 690 c 1
 -620 807 -538 912 -375 912 c 1
 -289 909 -220 872 -168 816 c 1
 -240 950 l 5
-375 812 m 0
 -426 812 -458 782 -475 750 c 1
 -235 750 l 1
 -273 788 -309 812 -375 812 c 0
EndSplineSet
EndChar

StartChar: uni0E48
Encoding: 232 3656 17
Width: 0
VWidth: 0
Flags: W
HStem: 1000 250<-230 -90>
VStem: -230 140<1000 1250>
AnchorPoint: "UpperTrail" -570 0 mark 0
LayerCount: 2
Fore
SplineSet
-230 1250 m 5
 -90 1250 l 5
 -90 1000 l 5
 -230 1000 l 5
 -230 1250 l 5
EndSplineSet
EndChar

StartChar: uni0E31
Encoding: 209 3633 18
Width: 0
VWidth: 0
Flags: W
HStem: 678 100<-254.625 -140.117> 885 65<-390.512 -309.488>
VStem: -460 65<800.148 880.512> -305 65<799.29 880.512>
AnchorPoint: "UpperTrail" -450 0 mark 0
LayerCount: 2
Fore
SplineSet
-350 950 m 4
 -289 950 -240 901 -240 840 c 4
 -240 820 -245 801 -255 785 c 5
 -243 781 -230 778 -215 778 c 4
 -138 779 -98 841 -80 900 c 5
 70 900 l 5
 21 779 -71 678 -215 678 c 4
 -317 678 -460 728 -460 840 c 4
 -460 901 -411 950 -350 950 c 4
-350 885 m 4
 -375 885 -395 865 -395 840 c 4
 -395 815 -375 795 -350 795 c 4
 -325 795 -305 815 -305 840 c 4
 -305 865 -325 885 -350 885 c 4
EndSplineSet
EndChar

StartChar: uni0E4B
Encoding: 235 3659 19
Width: 0
VWidth: 0
Flags: W
HStem: 1000 250<-230 -90> 1085 80<-310 -230 -90 -10>
VStem: -230 140<1000 1085 1165 1250>
AnchorPoint: "UpperTrail" -570 0 mark 0
LayerCount: 2
Fore
SplineSet
-230 1250 m 1xa0
 -90 1250 l 1xa0
 -90 1165 l 1
 -10 1165 l 1
 -10 1085 l 1
 -90 1085 l 1x60
 -90 1000 l 5
 -230 1000 l 5xa0
 -230 1085 l 1
 -310 1085 l 1
 -310 1165 l 1
 -230 1165 l 1x60
 -230 1250 l 1xa0
EndSplineSet
EndChar

StartChar: uni0E37
Encoding: 215 3639 20
Width: 0
VWidth: 0
Flags: W
HStem: 690 60<-475 -238> 812 100<-446.028 -309.381>
VStem: -190 100<840 950>
AnchorPoint: "UpperTrail" -570 0 mark 0
LayerCount: 2
Back
SplineSet
-392 950 m 5
 -270 950 l 5
 -208 816 l 5
 -168 816 l 5
 -230 950 l 5
 -90 950 l 5
 -90 690 l 5
 -620 690 l 5
 -620 807 -538 912 -375 912 c 5
 -392 950 l 5
-375 812 m 4
 -426 812 -458 782 -475 750 c 5
 -235 750 l 5
 -273 788 -309 812 -375 812 c 4
EndSplineSet
Fore
SplineSet
-620 690 m 1
 -620 807 -538 912 -375 912 c 0
 -351 911 -329 908 -308 902 c 1
 -360 950 l 5
 -230 950 l 1
 -230 870 l 1
 -190 840 l 1
 -190 950 l 1
 -90 950 l 1
 -90 690 l 1
 -620 690 l 1
-375 812 m 0
 -426 812 -458 782 -475 750 c 1
 -238 750 l 1
 -240 755 l 1
 -276 790 -312 812 -375 812 c 0
EndSplineSet
EndChar

StartChar: uni0E36
Encoding: 214 3638 21
Width: 0
VWidth: 0
Flags: W
HStem: 690 117<-209.61 -128.605> 690 60<-464 -224> 812 100<-435.59 -269.977> 897 65<-209.155 -129.084>
VStem: -610 396<690 852> -124 64<812.054 892.512>
AnchorPoint: "UpperTrail" -570 0 mark 0
LayerCount: 2
Back
SplineSet
-170 992 m 4x7c
 -109 992 -60 943 -60 882 c 4
 -60 845 -79 812 -107 792 c 5
 -89 760 -80 725 -80 690 c 5
 -610 690 l 5
 -610 807 -508 922 -345 922 c 4
 -320 922 -297 919 -275 914 c 5
 -261 959 -220 992 -170 992 c 4x7c
-170 927 m 4
 -195 927 -215 907 -215 882 c 4
 -215 857 -195 837 -170 837 c 4x9c
 -145 837 -125 857 -125 882 c 4
 -125 907 -145 927 -170 927 c 4
-345 832 m 4x7c
 -420 832 -448 802 -465 770 c 5
 -225 770 l 5
 -241 802 -270 832 -345 832 c 4x7c
EndSplineSet
Fore
SplineSet
-170 962 m 4x1c
 -109 962 -60 913 -60 852 c 4
 -60 812 -81 776 -113 757 c 5
 -100 736 -89 713 -80 690 c 5
 -610 690 l 5
 -610 807 -528 912 -364 912 c 5x6c
 -331 911 -300 904 -271 893 c 5
 -255 934 -216 962 -170 962 c 4x1c
-170 897 m 4x9c
 -194 897 -214 877 -214 852 c 4
 -214 827 -194 807 -170 807 c 4
 -145 807 -124 827 -124 852 c 4
 -124 877 -145 897 -170 897 c 4x9c
-364 812 m 4x6c
 -416 812 -448 782 -464 750 c 5
 -224 750 l 5
 -262 788 -298 812 -364 812 c 4x6c
EndSplineSet
EndChar

StartChar: uni0E03
Encoding: 163 3587 22
Width: 710
VWidth: 0
Flags: W
HStem: -12 120<334.145 467.059> 287 65<107.519 187.788> 442 65<108.301 188.012>
VStem: 10 93<356.639 481.131> 140 180<121.085 230.944> 193 64<357.345 436.655> 312 108<365.702 511.216> 470 180<113.916 590>
LayerCount: 2
Fore
SplineSet
215 575 m 1xf7
 285 617 l 1
 285 617 420 552 420 410 c 0xf7
 420 350 408 329 390 295 c 0
 369 255 320 209 320 176 c 0
 320 148 338 108 387 108 c 0
 425 108 453 113 470 126 c 1
 470 590 l 1
 650 590 l 1
 650 60 l 1
 650 60 549 -12 387 -12 c 0
 295 -12 140 25 140 120 c 2
 140 176 l 2xf9
 140 233 232 300 266 340 c 0
 286 364 312 396 312 427 c 0
 312 539 278 551 278 551 c 1
 215 515 l 1
 150 551 l 1
 150 551 116 528 108 500 c 1
 119 505 136 507 147 507 c 0
 208 507 257 460 257 397 c 0
 257 334 208 287 146 287 c 0
 84 287 10 327 10 420 c 0
 10 573 145 617 145 617 c 1
 215 575 l 1xf7
148 442 m 0
 124 442 103 422 103 397 c 0
 103 372 124 352 148 352 c 0
 173 352 193 372 193 397 c 0
 193 422 173 442 148 442 c 0
EndSplineSet
EndChar

StartChar: uni0E02
Encoding: 162 3586 24
Width: 710
VWidth: 0
Flags: W
HStem: -12 120<334.145 467.059> 287 65<107.519 187.788> 442 65<147 187.437> 525 87<148.668 267.11>
VStem: 10 93<356.639 437.041> 140 180<121.085 230.944> 193 64<357.345 436.655> 301 119<352.25 489.82> 470 180<113.916 590>
LayerCount: 2
Fore
SplineSet
200 612 m 4xfb80
 340 612 420 522 420 410 c 4xfb80
 420 350 408 329 390 295 c 4
 369 255 320 209 320 176 c 4
 320 148 338 108 387 108 c 4
 425 108 453 113 470 126 c 5
 470 590 l 5
 650 590 l 5
 650 60 l 5
 650 60 549 -12 387 -12 c 4
 295 -12 140 25 140 120 c 6
 140 176 l 6xfc80
 140 233 232 300 266 340 c 4
 286 364 301 396 301 427 c 4
 301 443 297 459 288 473 c 4
 274 496 251 525 200 525 c 4
 179 525 156 514 147 507 c 5
 208 507 257 460 257 397 c 4
 257 334 208 287 146 287 c 4
 84 287 10 327 10 420 c 4
 10 507 72 612 200 612 c 4xfb80
148 442 m 4
 124 442 103 422 103 397 c 4
 103 372 124 352 148 352 c 4
 173 352 193 372 193 397 c 4
 193 422 173 442 148 442 c 4
EndSplineSet
EndChar

StartChar: uni0E0B
Encoding: 171 3595 25
Width: 710
VWidth: 0
Flags: W
HStem: -12 120<334.145 467.059> 287 65<107.519 187.788> 442 65<108.301 188.012>
VStem: 10 93<356.639 481.131> 140 180<121.085 230.944> 193 64<357.345 436.655> 470 180<113.916 345.21> 510 180<536.318 640>
LayerCount: 2
Fore
SplineSet
510 640 m 1xf5
 690 640 l 1xf5
 690 519 657 461 585 410 c 1
 585 410 650 373 650 300 c 2
 650 60 l 1
 650 60 549 -12 387 -12 c 0
 295 -12 140 25 140 120 c 2
 140 176 l 2xfa
 140 233 232 300 266 340 c 0
 286 364 312 396 312 427 c 0
 312 539 278 551 278 551 c 1
 215 515 l 1
 150 551 l 1
 150 551 116 528 108 500 c 1
 119 505 136 507 147 507 c 0
 208 507 257 460 257 397 c 0
 257 334 208 287 146 287 c 0
 84 287 10 327 10 420 c 0
 10 573 145 617 145 617 c 1
 215 575 l 1
 285 617 l 1
 285 617 392 565 416 454 c 1
 485 512 510 577 510 640 c 1xf5
148 442 m 0
 124 442 103 422 103 397 c 0
 103 372 124 352 148 352 c 0
 173 352 193 372 193 397 c 0
 193 422 173 442 148 442 c 0
417 368 m 1
 413 337 403 320 390 295 c 0
 369 255 320 209 320 176 c 0
 320 148 338 108 387 108 c 0
 425 108 453 113 470 126 c 1
 470 300 l 2xfa
 470 322 445 347 417 368 c 1
EndSplineSet
EndChar

StartChar: uni0E0A
Encoding: 170 3594 26
Width: 710
VWidth: 0
Flags: W
HStem: -12 120<334.657 467.542> 287 65<109.408 189.611> 442 65<148 188.025> 525 87<149.146 268.132>
VStem: 10 94<356.409 437.271> 140 180<121.085 230.944> 194 64<357.345 436.655> 470 180<113.916 345.21> 510 180<532.475 640>
LayerCount: 2
Fore
SplineSet
510 640 m 1xfa80
 690 640 l 1xfa80
 690 519 658 461 586 410 c 1
 586 410 650 373 650 300 c 2
 650 60 l 1
 650 60 550 -12 388 -12 c 0
 296 -12 140 25 140 120 c 2
 140 176 l 2xfd
 140 233 232 300 266 340 c 0
 286 364 302 396 302 427 c 0
 302 443 298 459 288 473 c 0
 274 496 252 525 200 525 c 0
 180 525 156 514 148 507 c 1
 208 507 258 460 258 397 c 0
 258 334 208 287 146 287 c 0
 84 287 10 327 10 420 c 0
 10 507 72 612 200 612 c 0
 322 612 398 544 416 453 c 1
 490 511 510 576 510 640 c 1xfa80
148 442 m 0
 124 442 104 422 104 397 c 0
 104 372 124 352 148 352 c 0
 174 352 194 372 194 397 c 0
 194 422 174 442 148 442 c 0
418 368 m 1
 414 337 404 320 390 295 c 0
 370 255 320 209 320 176 c 0
 320 148 338 108 388 108 c 0
 426 108 454 113 470 126 c 1
 470 300 l 2xfd
 470 322 446 347 418 368 c 1
EndSplineSet
EndChar

StartChar: uni0E49
Encoding: 233 3657 27
Width: 0
VWidth: 0
Flags: W
HStem: 988 90<-210 -147.999> 1212 50<-327.075 -253.867>
VStem: -380 50<1135.47 1209.19> -250 58<1134.65 1207.59> -70 130<1163.54 1250>
AnchorPoint: "UpperTrail" -570 0 mark 0
LayerCount: 2
Fore
SplineSet
-290 1262 m 0
 -241 1262 -196 1228 -192 1172 c 0
 -192 1170 -192 1167 -192 1164 c 0
 -192 1132 -203 1094 -210 1078 c 1
 -134 1078 -70 1178 -70 1250 c 1
 60 1250 l 1
 60 1155 -25 988 -226 988 c 4
 -266 988 -314 997 -356 1014 c 1
 -326 1035 -307 1053 -298 1082 c 1
 -344 1085 -380 1124 -380 1172 c 0
 -380 1222 -340 1262 -290 1262 c 0
-290 1212 m 0
 -313 1212 -330 1194 -330 1172 c 0
 -330 1150 -313 1132 -290 1132 c 0
 -268 1132 -250 1150 -250 1172 c 0
 -250 1194 -268 1212 -290 1212 c 0
EndSplineSet
EndChar

StartChar: uni0E16
Encoding: 182 3606 28
Width: 710
VWidth: 0
Flags: W
HStem: -12 90<198.642 291.358> 0 21G<470 650> 497 120<261.079 433.825>
VStem: 100 180<264.901 380.246> 100 90<86.758 179.242> 300 90<86.6419 178.928> 470 180<0 461.992>
LayerCount: 2
Fore
SplineSet
470 0 m 2x76
 470 341 l 2
 470 390 469 421 453 450 c 0
 437 480 395 496 357 497 c 1
 289 497 235 458 215 437 c 1
 305 398 l 1
 283 380 280 354 280 335 c 2
 280 274 l 1x76
 343 258 390 201 390 133 c 4
 390 53 325 -12 245 -12 c 0
 165 -12 100 53 100 133 c 0xae
 100 192 100 242 100 301 c 0
 100 329 109 361 130 385 c 1
 40 429 l 1
 55 452 70 472 86 490 c 0
 163 579 257 617 357 617 c 0
 449 617 534 603 584 546 c 1
 636 489 650 431 650 341 c 2
 650 0 l 2
 470 0 l 2x76
245 188 m 0
 215 188 190 163 190 133 c 0
 190 103 215 78 245 78 c 0xae
 275 78 300 103 300 133 c 0
 300 163 275 188 245 188 c 0
EndSplineSet
EndChar

StartChar: uni0E21
Encoding: 193 3617 30
Width: 660
VWidth: 0
Flags: W
HStem: -12 90<99.1116 190.931> 0 21G<398.862 600> 188 224<110.764 191.537> 522 90<99.2357 190.266>
VStem: 0 90<86.6419 178.928 421.072 511.665> 110 180<264.901 335.099> 200 90<420.05 513.474> 420 180<160 590>
LayerCount: 2
Fore
SplineSet
146 612 m 0xbd
 226 612 290 547 290 467 c 2
 290 246 l 1
 339 224 383 192 420 160 c 1
 420 590 l 1
 600 590 l 1
 600 0 l 1
 420 0 l 5
 420 0 382 75 290 123 c 1x7b
 285 48 222 -12 146 -12 c 0
 66 -12 0 53 0 133 c 0
 0 201 48 258 110 274 c 1
 110 326 l 1
 48 342 0 399 0 467 c 0
 0 547 66 612 146 612 c 0xbd
146 522 m 0
 116 522 90 497 90 467 c 0
 90 437 116 412 146 412 c 0
 176 412 200 437 200 467 c 0
 200 497 176 522 146 522 c 0
146 188 m 0
 115 188 90 163 90 133 c 0
 90 103 115 78 146 78 c 0xbb
 176 78 200 103 200 133 c 0
 200 163 176 188 146 188 c 0
EndSplineSet
EndChar

StartChar: uni0E06
Encoding: 166 3590 31
Width: 700
VWidth: 0
Flags: HW
HStem: -12 90<128.642 220.482> 0 21G<462.358 640> 188 90<128.642 206.98> 287 65<97.5186 177.788> 442 65<98.3008 178.012>
VStem: 0 93<356.639 481.131> 30 90<86.6419 179.358> 183 64<357.345 436.655> 302 108<365.702 511.216> 460 180<152 590>
LayerCount: 2
Fore
SplineSet
135 617 m 1xbdc0
 205 575 l 1
 275 617 l 1
 275 617 410 552 410 410 c 0
 410 350 398 329 380 295 c 0
 370 276 353 255 339 235 c 1
 384 212 425 183 460 152 c 1
 460 590 l 1
 640 590 l 1
 640 0 l 1
 590 0 510 0 460 0 c 5x7dc0
 460 0 415 75 320 123 c 1
 314 47 252 -12 175 -12 c 0
 95 -12 30 53 30 133 c 0xbbc0
 30 213 95 278 175 278 c 0
 181 278 187 278 193 277 c 1
 217 301 242 323 256 340 c 0
 276 364 302 396 302 427 c 0
 302 539 268 551 268 551 c 1
 205 515 l 1
 140 551 l 1
 140 551 106 528 98 500 c 1
 109 505 126 507 137 507 c 0
 198 507 247 460 247 397 c 0
 247 334 198 287 136 287 c 0
 74 287 0 327 0 420 c 0
 0 573 135 617 135 617 c 1xbdc0
138 442 m 0
 114 442 93 422 93 397 c 0
 93 372 114 352 138 352 c 0
 163 352 183 372 183 397 c 0
 183 422 163 442 138 442 c 0
175 188 m 0
 145 188 120 163 120 133 c 0
 120 103 145 78 175 78 c 0xbbc0
 205 78 230 103 230 133 c 0
 230 163 205 188 175 188 c 0
EndSplineSet
EndChar

StartChar: uni0E4C
Encoding: 236 3660 32
Width: 0
VWidth: 0
Flags: W
HStem: 988 65<-230.512 -149.488>
VStem: -300 65<1057.49 1138.22> -145 65<1057.49 1138.27>
AnchorPoint: "UpperTrail" -570 0 mark 0
LayerCount: 2
Fore
SplineSet
-30 1320 m 5
 100 1320 l 5
 100 1195 -15 1173 -113 1172 c 5
 -100 1160 -80 1137 -80 1098 c 4
 -80 1037 -129 988 -190 988 c 4
 -251 988 -300 1037 -300 1098 c 4
 -300 1152 -270 1205 -186 1228 c 4
 -102 1250 -30 1257 -30 1320 c 5
-190 1143 m 4
 -215 1143 -235 1123 -235 1098 c 4
 -235 1073 -215 1053 -190 1053 c 4
 -165 1053 -145 1073 -145 1098 c 4
 -145 1123 -165 1143 -190 1143 c 4
EndSplineSet
EndChar

StartChar: uni0E4A
Encoding: 234 3658 34
Width: 0
VWidth: 0
Flags: W
HStem: 988 50<-368.911 -294.925> 990 58<-225 -197> 1118 50<-346.72 -295.719> 1205 52<-345.554 -289.845 -248.109 -189.811>
VStem: -440 68<1041.06 1130.5> -292 50<1040.81 1114.76 1170 1204.95> -179 89<1087.77 1202.16> -55 115<1109.73 1250>
AnchorPoint: "UpperTrail" -570 0 mark 0
LayerCount: 2
Fore
SplineSet
-329 1257 m 0xbf
 -303 1257 -285 1248 -269 1231 c 1
 -253 1248 -235 1257 -209 1257 c 0
 -156 1257 -125 1229 -108 1194 c 0
 -97 1171 -90 1146 -90 1122 c 0
 -90 1110 -92 1098 -96 1087 c 1
 -64 1109 -55 1184 -55 1250 c 1
 60 1250 l 1
 58 1142 39 990 -196 990 c 0
 -241 990 l 1
 -225 1048 l 1x7f
 -197 1054 l 0
 -184 1063 -179 1089 -179 1116 c 0
 -179 1136 -182 1156 -186 1168 c 0
 -191 1184 -194 1205 -218 1205 c 0
 -241 1205 -249 1187 -249 1170 c 1
 -289 1170 l 1
 -289 1187 -296 1205 -319 1205 c 0
 -343 1205 -347 1180 -347 1166 c 1
 -343 1168 -337 1168 -332 1168 c 0
 -281 1168 -242 1126 -242 1078 c 0
 -242 1028 -282 988 -332 988 c 0
 -381 988 -422 1017 -435 1068 c 0
 -438 1079 -440 1101 -440 1118 c 0
 -440 1143 -432 1179 -425 1194 c 0
 -407 1230 -382 1257 -329 1257 c 0xbf
-332 1118 m 0
 -354 1118 -372 1100 -372 1078 c 0
 -372 1056 -354 1038 -332 1038 c 0xbf
 -309 1038 -292 1056 -292 1078 c 0
 -292 1100 -309 1118 -332 1118 c 0
EndSplineSet
EndChar

StartChar: uni0E47
Encoding: 231 3655 35
Width: 0
VWidth: 0
Flags: W
HStem: 690 85<-497.15 -413.294> 690 60<-237.121 -162.545> 830 50<-236 -164> 895 75<-445.661 -216.88> 910 85<-496.642 -245.667>
VStem: -620 110<785.36 897.477> -401 60<789.317 848> -290 50<772.49 826> -165 120<1016.95 1100> -160 50<754.116 826>
AnchorPoint: "UpperTrail" -600 0 mark 0
LayerCount: 2
Fore
SplineSet
-165 1100 m 1x3780
 -45 1100 l 1
 -45 1042 -65 995 -113 956 c 0
 -171 909 -223 895 -302 895 c 0x3780
 -355 895 -377 910 -449 910 c 0
 -474 910 -510 889 -510 845 c 0
 -510 802 -482 775 -460 775 c 0xaf80
 -432 775 -401 796 -401 848 c 1
 -341 848 l 1
 -341 796 -310 786 -288 772 c 1
 -289 778 -290 784 -290 790 c 0
 -290 840 -250 880 -200 880 c 0
 -150 880 -110 840 -110 790 c 0
 -110 739 -150 690 -225 690 c 0x6740
 -287 690 -355 713 -368 737 c 1
 -383 712 -422 690 -470 690 c 0
 -566 690 -620 770 -620 845 c 0
 -620 921 -551 995 -457 995 c 0xaf40
 -387 995 -356 970 -312 970 c 4
 -308 970 -304 970 -301 970 c 4
 -261 970 -249.679 976.431 -221 993 c 0
 -176 1019 -165 1053 -165 1100 c 1x3780
-200 830 m 0
 -222 830 -240 812 -240 790 c 0
 -240 768 -222 750 -200 750 c 0
 -178 750 -160 768 -160 790 c 0x6740
 -160 812 -178 830 -200 830 c 0
EndSplineSet
EndChar

StartChar: uni0E32
Encoding: 210 3634 36
Width: 610
VWidth: 0
Flags: W
HStem: 0 21G<370 550> 497 120<170.46 337.96>
VStem: 370 180<0 463.826>
LayerCount: 2
Fore
SplineSet
370 0 m 1
 370 341 l 2
 370 356 370 369 370 382 c 0
 370 410 368 434 352 456 c 0
 324 495 294 497 256 497 c 0
 200 496 140 460 86 406 c 1
 10 500 l 1
 83 574 186 617 256 617 c 0
 327 617 414 614 484 545 c 1
 534 494 550 431 550 341 c 2
 550 0 l 1
 370 0 l 1
EndSplineSet
EndChar

StartChar: uni0E27
Encoding: 199 3623 37
Width: 610
VWidth: 0
Flags: W
HStem: -12 90<359.734 450.764> 497 120<170.46 337.96>
VStem: 260 90<86.2878 179.282> 370 180<264.901 463.826> 460 90<89.9116 179.242>
LayerCount: 2
Fore
SplineSet
256 617 m 4xf0
 327 617 414 614 484 545 c 5
 534 494 550 431 550 341 c 6xf0
 550 133 l 6xe8
 550 53 484 -12 404 -12 c 4
 324 -12 260 53 260 133 c 4
 260 201 306 258 370 274 c 5
 370 341 l 6
 370 356 370 369 370 382 c 4
 370 410 368 434 352 456 c 4
 324 495 294 497 256 497 c 4
 200 496 140 460 86 406 c 5
 10 500 l 5
 83 574 186 617 256 617 c 4xf0
404 188 m 4
 374 188 350 163 350 133 c 4
 350 103 374 78 404 78 c 4
 434 78 460 103 460 133 c 4xe8
 460 163 434 188 404 188 c 4
EndSplineSet
EndChar

StartChar: uni0E4D
Encoding: 237 3661 38
Width: 0
VWidth: 0
Flags: W
HStem: 670 85<-212.683 -117.317> 875 85<-212.683 -117.317>
VStem: -310 85<767.317 862.683> -105 85<767.317 862.683>
AnchorPoint: "UpperTrail" -500 0 mark 0
LayerCount: 2
Fore
SplineSet
-165 960 m 4
 -85 960 -20 895 -20 815 c 4
 -20 735 -85 670 -165 670 c 4
 -245 670 -310 735 -310 815 c 4
 -310 895 -245 960 -165 960 c 4
-165 875 m 4
 -198 875 -225 848 -225 815 c 4
 -225 782 -198 755 -165 755 c 4
 -132 755 -105 782 -105 815 c 4
 -105 848 -132 875 -165 875 c 4
EndSplineSet
EndChar

StartChar: uni0E39
Encoding: 217 3641 39
Width: 0
VWidth: 0
Flags: W
HStem: -402 80<-274.076 -200.525> -113 65<-429.817 -348.793>
VStem: -500 66<-198.531 -117.258> -344 64<-198.588 -117.563> -200 140<-321.027 -60>
LayerCount: 2
Fore
SplineSet
-390 -48 m 0
 -328 -48 -280 -97 -280 -158 c 2
 -280 -260 l 2
 -280 -272 -279 -288 -274 -300 c 0
 -268 -312 -259 -322 -240 -322 c 0
 -220 -322 -200 -315 -200 -315 c 1
 -200 -60 l 1
 -60 -60 l 1
 -60 -365 l 1
 -60 -365 -146 -402 -240 -402 c 4
 -333 -402 -420 -379 -420 -310 c 2
 -420 -264 l 1
 -466 -251 -500 -208 -500 -158 c 0
 -500 -97 -450 -48 -390 -48 c 0
-390 -113 m 0
 -414 -113 -434 -133 -434 -158 c 0
 -434 -183 -414 -203 -390 -203 c 0
 -364 -203 -344 -183 -344 -158 c 0
 -344 -133 -364 -113 -390 -113 c 0
EndSplineSet
EndChar

StartChar: uni0E4E
Encoding: 238 3662 40
Width: 0
VWidth: 0
Flags: W
HStem: 678 85<-456.474 -410> 883 85<-456.474 -410> 1028 85<-312.683 -217.317>
VStem: -555 85<775.317 870.683> -410 85<968 1014.47> -205 85<968 1014.47>
LayerCount: 2
Fore
SplineSet
-265 1113 m 4
 -185 1113 -120 1048 -120 968 c 5
 -205 968 l 5
 -205 1001 -232 1028 -265 1028 c 4
 -298 1028 -325 1001 -325 968 c 4
 -325 945 -304 923 -304 923 c 5
 -269 888 l 5
 -329 828 l 5
 -342 840 -355 852 -365 862 c 5
 -376 875 -392 883 -410 883 c 4
 -443 883 -470 856 -470 823 c 4
 -470 790 -443 763 -410 763 c 5
 -410 678 l 5
 -490 678 -555 743 -555 823 c 4
 -555 903 -490 968 -410 968 c 5
 -410 1048 -345 1113 -265 1113 c 4
EndSplineSet
EndChar
